<?xml version="1.0" encoding="UTF-8" standalone="no"?>
<!-- Created with Inkscape (http://www.inkscape.org/) -->

<svg
   xmlns:dc="http://purl.org/dc/elements/1.1/"
   xmlns:cc="http://creativecommons.org/ns#"
   xmlns:rdf="http://www.w3.org/1999/02/22-rdf-syntax-ns#"
   xmlns:svg="http://www.w3.org/2000/svg"
   xmlns="http://www.w3.org/2000/svg"
   xmlns:sodipodi="http://sodipodi.sourceforge.net/DTD/sodipodi-0.dtd"
   xmlns:inkscape="http://www.inkscape.org/namespaces/inkscape"
   width="1100"
   height="720"
   viewBox="0 0 1100 720"
   version="1.1"
   id="svg3686"
   inkscape:version="0.92.5 (2060ec1f9f, 2020-04-08)"
   sodipodi:docname="map.svg">
  <defs
     id="defs3680" />
  <sodipodi:namedview
     id="base"
     pagecolor="#a2a2a2"
     bordercolor="#666666"
     borderopacity="1.0"
     inkscape:pageopacity="0"
     inkscape:pageshadow="2"
     inkscape:zoom="0.96288056"
     inkscape:cx="708.92258"
     inkscape:cy="286.87687"
     inkscape:document-units="px"
     inkscape:current-layer="layer1"
     showgrid="true"
     units="px"
     inkscape:snap-nodes="true"
     inkscape:snap-bbox="true"
     inkscape:bbox-nodes="true"
     inkscape:window-width="1280"
     inkscape:window-height="656"
     inkscape:window-x="0"
     inkscape:window-y="27"
     inkscape:window-maximized="1">
    <inkscape:grid
       type="xygrid"
       id="grid4255" />
  </sodipodi:namedview>
  <metadata
     id="metadata3683">
    <rdf:RDF>
      <cc:Work
         rdf:about="">
        <dc:format>image/svg+xml</dc:format>
        <dc:type
           rdf:resource="http://purl.org/dc/dcmitype/StillImage" />
        <dc:title></dc:title>
      </cc:Work>
    </rdf:RDF>
  </metadata>
  <g
     inkscape:label="Layer 1"
     inkscape:groupmode="layer"
     id="layer1"
     transform="translate(0,-312.41665)">
    <path
       inkscape:connector-curvature="0"
       d="m 419.12321,914.93255 4.8883,8.43 v 9.1963 c -4.8883,0 -7.82125,-0.7663 -8.79904,-0.7663 -0.9776,-0.7663 1.95541,-8.43 3.91074,-16.86 z"
       id="li-9"
       style="fill:#ffffff;fill-opacity:0.15686275;stroke:#ffffff;stroke-width:1.7584151;stroke-miterlimit:4;stroke-dasharray:none" />
    <g
       id="g4475"
       style="fill:none;stroke:#f7f7f7;stroke-width:10;stroke-miterlimit:4;stroke-dasharray:none;stroke-opacity:1"
       transform="translate(100)">
      <path
         style="fill:none;fill-opacity:0.91176471;stroke:#f7f7f7;stroke-width:10;stroke-miterlimit:4;stroke-dasharray:none;stroke-opacity:1"
         id="de-2"
         d="m 273.78612,353.614 c -0.12283,-0.046 -0.20751,0.046 -0.36457,0.17974 -0.20926,0.17544 -0.58911,0.62343 -0.91122,1.25963 -1.28868,2.54481 -2.85895,4.38355 -4.92073,15.83532 -0.12904,2.67205 1.14681,4.53323 1.2757,2.87917 0.12853,-1.65415 0.66913,-5.83547 1.18463,-7.10787 0.51579,-1.27245 1.1339,-1.01799 2.55152,0 1.41754,1.01789 1.57662,-0.099 4.28289,-0.98978 2.70622,-0.89067 3.21793,-1.97938 2.18694,-1.97938 -1.03094,0 -3.93015,0.81727 -6.3788,0.17973 -2.44851,-0.6362 -0.56928,-4.0605 -0.18206,-6.47812 0.31412,-1.96424 2.29584,-2.46208 2.55153,-2.69917 -0.5798,-0.14318 -0.90727,-0.94507 -1.27579,-1.07965 z m 9.29468,10.25694 c 0,3.78097 0.54603,8.09558 2.18699,11.87648 0.6196,1.22364 4.7689,6.02668 8.38347,10.25697 -1.41762,3.94453 -0.61854,4.07331 -2.55147,5.21844 -1.93312,1.14522 -1.58158,4.61693 1.64018,3.599 2.73856,-0.86526 3.5603,-1.71468 4.92077,-3.95889 0.52799,0.69834 1.27578,1.62972 1.27578,1.79951 -1.77,7.3672 -10.28767,4.50682 -16.40245,7.01793 0.4159,0.50281 4.68791,1.05518 2.73372,3.239 -0.5472,1.0803 -4.92102,-0.71974 -4.37399,0.35991 0.43345,3.54326 0.57744,6.17424 9.8414,4.13876 1.49427,1.51866 1.2919,1.90894 2.00477,1.43961 0.68329,-0.44993 1.94837,-1.9273 3.09825,-3.419 0.3207,0.0614 0.73437,-0.0173 0.9113,0.17974 -3.96888,4.57685 -6.68205,5.14279 -6.01432,12.59624 0.91829,0.52523 1.53166,0.55051 2.3693,0.35991 1.67536,-0.3814 2.22743,0.92687 3.64502,3.5989 1.41753,2.67214 0.75484,3.69537 -1.8225,3.05911 -2.33106,-0.57522 -2.64178,-0.78217 -3.82723,0 0.62043,2.43744 1.51373,4.62117 2.36919,6.29817 -1.09402,7.56187 11.29864,4.49865 12.93971,4.49865 9.94284,1.04784 7.36063,10.03641 13.66876,12.41639 1.73578,4.00428 -0.92388,8.09724 14.3977,11.87643 -15.07783,-2.2486 -14.03166,-5.93582 -16.76701,-10.25688 -5.39653,-4.42878 -4.7363,-10.07622 -8.56573,-11.69657 -4.92331,-2.16058 -10.74968,2.33993 -16.22017,1.25965 -2.18812,0 -4.91988,0 -6.56098,-1.07974 -1.64106,-0.54015 -1.89,-4.46658 -2.73373,-3.77891 -11.55109,9.41589 -7.93278,17.6114 -5.46747,25.01261 -7.51142,-1.8797 -10.52804,-9.60684 -13.12194,-3.23906 -3.4261,8.41063 4.92832,0.82423 1.82246,10.97681 -0.56467,1.84595 -3.09921,3.19602 -5.83193,-1.43962 -0.81127,-0.0172 -3.51854,-0.65086 -3.28046,-2.51923 0.23779,-1.8684 4.67233,-3.04053 2.5514,-6.65806 -2.75241,-4.69456 -4.37233,-5.85886 -4.00946,-8.63741 -0.54723,-0.54017 -2.18669,-1.07963 -2.73377,-1.07963 -11.33047,-0.34743 -13.31148,0.89883 -18.77165,2.51926 -2.86406,-0.76356 -10.02225,-1.44031 -12.75743,0.17975 -1.58319,0.78159 -4.07115,3.20314 -6.19644,6.29812 1.86058,1.8847 2.97122,2.60371 2.00469,2.69916 -1.28874,0.12683 -2.02683,0.24208 -1.6402,1.25964 0.32597,0.85759 -0.45229,0.28636 -2.18698,-0.71979 -2.7179,4.87153 -4.46496,10.32478 -2.18705,13.1361 2.22888,0.33667 5.90853,1.28151 8.93024,1.25963 0.3874,1.04416 2.88189,2.39801 1.09351,5.75829 1.09398,9.18232 -8.20063,26.4501 -9.29473,30.23108 -1.64111,4.32102 2.18927,12.9562 -2.18704,12.9562 -3.82934,0 -7.10567,-1.61953 -10.93488,-1.61953 -1.09415,0 -2.73377,0 -2.73377,1.07964 -0.5472,1.62043 2.18722,3.23826 1.64019,4.85865 0,1.08027 -2.73342,-0.54076 -3.28047,1.07963 -4.92344,8.10195 15.30867,4.85454 15.85572,12.41631 2.18824,13.50334 -8.19651,15.65215 -16.94916,21.59364 -4.92345,3.24078 7.10851,3.77684 5.46749,7.5578 -1.64119,3.78094 -16.40034,8.63771 -20.22976,8.09752 -3.82929,0 -6.01248,-3.77817 -9.29469,-4.8585 -1.09407,-0.54019 1.09412,2.69884 0,3.23902 -3.28224,1.0803 -6.55951,-0.54074 -9.29468,1.07965 -1.0942,0.54017 0,2.15872 0,3.23902 -0.5472,1.08028 -1.64056,2.69873 -1.09353,3.7789 3.2823,5.94149 15.31165,14.56927 10.38821,26.45222 -1.64114,3.78097 -5.46662,6.47597 -7.10771,10.25694 -2.1882,4.32103 4.92103,1.07824 4.37399,3.77884 l -10.38826,9.1773 c -1.09396,0 0.40228,-2.41417 -1.23876,-1.87394 -4.92333,7.95124 8.47628,2.59593 6.70625,13.75053 -0.54722,2.16059 -4.37365,2.15824 -4.92074,4.31876 -0.54716,1.62033 7.10742,12.9558 7.65452,13.49595 1.09415,1.08029 4.37398,-1.07796 4.37398,0.53963 0.54721,2.16054 -3.82753,4.31759 -3.28044,6.47806 1.09401,3.24074 6.01334,2.69784 7.65436,5.3984 7.65866,12.42306 -17.49854,11.32579 -12.57514,31.31073 2.73522,11.34277 15.85507,12.59544 16.94918,14.21583 7.65859,9.18224 -14.21875,13.4901 -8.20123,24.29281 1.09412,1.62036 4.37319,0 6.0142,1.6195 4.37635,2.70064 7.10482,15.11265 12.57526,20.51399 6.56454,7.02167 -4.38278,-15.12601 12.02841,-0.53957 1.0942,1.08029 -1.0964,3.2382 -0.5466,4.85862 1.09398,1.6203 18.588,-5.39968 21.32317,-3.2391 1.64112,1.62039 0.54603,4.8577 2.18701,6.47804 2.18815,1.62043 34.99304,5.39632 32.80486,9.17729 -6.01752,10.2626 -16.94682,16.73041 -21.32319,25.37254 -1.64114,3.78093 -2.18668,15.65356 -2.73371,18.89439 l -7.65446,12.41635 c -1.09404,2.70072 -2.18727,5.39696 -1.64027,8.0976 0,1.62044 2.18703,1.61893 2.18703,2.69921 -0.54722,7.56186 -6.01458,14.57161 -5.46758,22.13346 0,18.90461 2.18447,2.69709 7.10777,6.47807 0.54721,0.54019 -3.28076,1.07904 -2.73373,2.15938 1.64106,3.24074 26.78976,-2.69918 28.43092,-2.69918 10.9409,-0.54018 1.08603,9.72083 14.76216,2.69918 0.54718,-0.54014 -1.09407,-3.23871 0,-3.77891 1.64116,-1.08029 7.65568,-1.61919 5.46743,-2.15937 -3.28218,-0.54015 -6.55916,0.54018 -9.84142,0 -1.64115,-0.54015 7.65003,-15.11986 15.85571,-7.01793 1.09413,1.08034 -1.64052,3.23821 -1.09345,4.85854 0.54717,1.08038 2.73312,1.61985 3.82719,1.07975 1.0941,-0.54019 -0.54717,-4.31935 0,-3.23907 2.18818,1.08025 2.18578,4.85803 4.37397,5.93823 0,0 18.0424,-1.07964 18.58943,-1.07964 6.01752,1.62036 9.83821,7.55657 15.85577,9.71714 8.75269,2.70054 8.19987,-7.01912 10.93495,-4.85855 1.09407,1.0802 0,3.77826 1.09347,4.85855 2.18822,0.54018 4.37316,-2.16001 6.01426,-1.07973 2.18822,1.08028 3.27923,3.77803 5.46741,5.39847 2.73528,2.16059 -1.09401,4.3178 0,5.93815 0.5472,1.08033 2.18642,1.61953 3.28054,1.61953 1.09412,0 2.73346,-2.15963 3.2805,-1.61953 1.64115,2.16058 -4.37519,5.39727 -2.187,7.55781 3.82932,3.78097 14.2154,-8.63624 14.2154,-10.79677 1.09412,-3.78097 -2.18869,-12.95741 1.09356,-10.79684 0,0.54016 -1.09356,1.0797 -1.09356,1.0797 4.37637,4.8612 19.68178,-3.78269 21.86996,3.23906 0.54721,1.08024 -2.734,0.53898 -2.18699,1.61953 0.54721,1.08015 3.28017,1.07907 3.82727,2.15936 1.09402,1.08029 0,3.77813 1.0935,4.85851 2.18822,1.0802 20.77609,-3.77851 21.32317,-4.3187 1.09407,-1.08016 -1.09184,-3.7787 0.5466,-4.3187 2.18817,-1.62044 4.91962,1.07796 7.10769,-0.53964 2.18822,-1.08028 1.09235,-4.8579 3.28049,-5.93828 7.11155,-2.70062 19.67883,0.54136 27.33741,-1.61947 1.64109,-0.54016 -4.37756,-9.17705 2.18699,-9.71718 1.09412,0 -1.09411,3.23879 0,3.7789 2.73522,1.08025 6.01247,-1.62268 9.29473,-0.53958 1.64105,0.54018 1.09219,4.31844 3.28044,4.85859 4.37629,0.54015 8.19892,-3.23911 12.57523,-3.23911 8.20569,0.54018 -5.47693,9.17467 12.02846,14.03592 1.0941,0 2.18699,-1.61898 2.18699,-2.69926 4.92337,-17.82441 -1.09025,-9.71425 -7.10776,-15.11551 -2.73519,-2.16058 4.92098,-8.63716 4.37405,-9.1773 0,-0.54015 -13.122,-18.35459 -13.122,-18.35459 0.5472,-8.64214 23.68978,-14.03377 28.61319,-17.81474 5.47042,-4.32106 2.18633,-10.25406 3.28044,-15.65536 0.54717,-1.0803 1.6397,-1.61949 2.73377,-1.61949 11.48788,2.70063 14.76188,5.94619 15.30888,-8.63744 0.5472,-14.04351 -23.14088,-22.13028 -31.89365,-28.07172 -3.82929,-3.24075 -4.37194,-9.17523 -8.20123,-12.95616 -4.12583,-4.07375 -9.26314,0.0631 -12.57513,-2.51927 -0.9607,-0.74911 1.33185,-1.89178 0.91121,-2.69917 -1.57481,-3.02364 -3.41668,-3.42719 -5.83193,-3.599 -5.68801,-14.44286 -5.45447,-18.12561 -13.122,-23.03313 1.09415,-5.94147 8.20209,-3.23497 6.56104,-10.79688 -0.54721,-3.24073 -4.37344,-3.95853 -5.46746,-4.49864 -3.86885,-2.48289 -7.45268,-6.3591 -10.20606,-10.25694 0.003,-1.21677 -0.075,-2.41757 0,-3.23909 0.19302,-2.09952 -1.90562,-2.98964 -3.28047,-3.95878 -1.37476,-0.96917 -1.61258,-1.53598 -1.82252,-2.15938 0.28035,-0.20638 0.85889,-0.46427 1.27581,-0.71979 1.47267,-0.90265 -1.89914,-2.42822 -0.18208,-3.59891 2.19577,-1.49771 3.86395,1.84786 5.4675,3.95881 2.18823,1.62041 2.18643,9.17832 3.28045,7.01788 4.37638,-8.64205 6.55368,-18.89314 20.22974,-21.05371 1.64109,0 7.65316,4.85992 9.84145,2.15937 1.6411,-1.62044 0,-4.85795 1.64022,-5.93828 1.64114,-1.62042 4.91985,1.07798 6.561,-0.53962 3.28221,-2.16057 4.00674,-8.63682 8.93015,-9.7171 1.64118,-0.54018 2.7332,3.23961 3.82732,2.15939 2.7352,-2.16058 1.63868,-6.47693 4.37395,-8.6375 3.28221,-2.70055 9.2924,0.5413 13.66868,-1.61953 1.09412,-0.54018 0,-3.23867 1.09355,-3.77885 6.56449,-3.78086 15.85216,-4.31575 22.41667,-9.71719 2.18814,-1.62039 -7.6551,-3.77753 -6.56104,-6.47809 0.91998,-2.55989 1.84022,-5.08913 3.0983,-4.67863 1.71848,0.56084 2.50479,2.62362 3.71106,2.55504 1.20615,-0.0684 1.37081,-0.84986 2.00693,-0.89044 0.40494,-0.0302 0.71736,0.55565 1.02519,0.85468 0.4494,0.0516 0.81672,0.0748 1.27575,0.17971 4.44604,1.01788 4.50479,1.43392 4.08419,3.37842 -0.4203,1.94452 -0.26981,2.78432 0.28999,2.91942 0.55997,0.13547 1.14592,-0.53388 1.82247,-0.89975 2.02977,-1.09748 1.36932,1.06203 0.18206,3.23902 0.10573,0.1209 0.25885,0.24252 0.36416,0.3599 -0.53504,2.56485 1.6177,3.10938 3.64496,3.4191 1.07516,0.70718 2.15396,1.11486 3.09827,0.89969 3.28225,-0.54015 3.28365,-8.08035 7.28996,-21.05384 1.5613,-5.05582 3.94405,-8.23748 0.36412,-15.47537 -2.06826,-4.1824 -0.53904,-7.78901 -5.46744,-10.97678 -2.18823,-2.16053 -7.10663,-1.07796 -9.29472,-4.31871 -1.6411,-2.16058 5.02263,-3.61564 1.09345,-8.09762 -1.33606,-1.79443 -3.99952,-4.70377 -4.5562,-7.73768 -0.47386,-2.58239 -3.64589,-2.24813 -2.00476,-4.6786 7.56918,-7.69423 3.4345,-8.08806 5.46751,-16.19523 -0.54712,-1.08032 -2.73346,-0.53902 -3.28054,-2.15935 -0.54718,-2.70069 1.64115,-6.47666 0,-9.17729 -1.09407,-3.24088 -5.04876,-2.40873 -6.56097,-7.01801 -2.46167,-2.97076 -0.29612,-6.16721 0.72906,-8.27751 1.02541,-2.11025 1.81331,-3.13407 0.91122,-8.45747 -0.67707,-3.99548 -7.07662,-7.18677 -12.02845,-11.33666 -4.59226,-3.84853 -9.84084,-2.69744 -10.935,-5.93827 -0.95737,-2.56567 2.00352,-1.40846 1.27574,-7.37781 -0.33956,-2.78673 3.67538,-4.80631 5.64984,-7.0179 2.08779,-2.33878 2.95671,-6.93024 3.82717,-9.89711 0.87046,-2.96679 1.68603,-4.31698 1.27575,-7.55775 -1.09415,-5.40133 -7.65385,-20.86912 -8.748,-29.51128 -1.07828,0.0791 0.93459,-3.42553 -0.72897,-3.95881 -1.66371,-0.53329 -4.93819,2.29938 -8.38343,0.3599 -4.36049,-2.53686 -6.81791,-4.38362 -8.20126,-5.75832 0.46337,-0.11396 1.21211,-0.35989 1.45802,-0.35989 1.41751,0 0.81362,-2.25578 1.458,-1.61952 0.64447,0.63619 -0.97588,1.31233 0.18206,1.43958 1.15987,0.12767 2.35629,-1.5759 3.64493,-2.33933 1.28873,-0.76338 1.68989,0.25455 4.00957,0 2.31961,-0.25455 3.64497,0.17972 3.64497,0.17972 l -0.36456,-2.51917 -0.54655,-0.89975 1.27575,-0.89977 c 0,0 0.23907,-0.0385 -1.82249,-1.43958 -2.06192,-1.39969 -1.91262,-1.78293 -5.64975,-5.21845 -3.73727,-3.43557 -4.36486,-2.71203 -3.46277,-1.43959 0.90205,1.27243 2.34704,2.53734 2.73372,4.31876 0.38695,1.78128 -0.21365,3.10271 -0.729,2.33928 -0.51576,-0.76335 -1.64016,-1.25964 -1.64016,-1.25964 0,0 -0.29788,-1.13236 -1.45806,-1.25963 -1.15978,-0.12682 -2.48888,1.14148 -1.45802,2.15936 1.03111,1.01799 1.3218,3.9242 0.54664,5.57839 -0.30272,0.64755 -1.75015,1.15236 -3.28056,1.43955 -1.19785,-3.40454 7.45349,-3.0004 -3.46269,-10.25696 -3.87702,-2.57734 9.10739,-3.59133 5.46744,-4.85853 -4.63932,-7.85523 -7.4218,-7.28869 -6.74318,-4.13875 -4.37638,-1.0803 -10.92751,0.88322 -11.66397,4.31865 -2.34604,-4.42224 -6.55925,-7.01638 -9.84145,-9.71704 -1.6411,-2.16054 -5.46663,-1.07852 -7.10777,-3.2391 -2.18818,-3.24074 0.003,-10.79682 -3.82718,-10.79682 -0.27333,0 -0.54951,-0.0517 -0.72902,-0.17974 -0.0662,0.0908 -0.11195,0.29325 -0.18208,0.3599 -1.41756,1.33604 -1.12289,0.54877 -2.73374,1.43954 -1.61121,0.89067 -1.31836,1.71214 -1.64029,3.23909 -0.32246,1.52692 -2.48739,1.37784 -2.55149,0.35989 -0.0641,-1.01815 -0.49184,-1.56681 -1.45799,-1.43958 -0.96649,0.12768 -2.50721,0.0654 -3.28052,-1.07963 -0.77342,-1.14544 -0.12682,-0.95431 -1.09347,0 -0.96654,0.95433 -1.91631,1.67035 -3.46274,2.87911 -1.54639,1.20886 -1.47818,-1.92852 -2.18696,-0.71974 -0.70878,1.20877 -0.0396,2.01017 -1.45799,2.51923 -1.41753,0.50913 -1.018,1.32137 -1.27573,2.33931 -0.25752,1.01791 -1.585,0.20941 -2.55153,1.79948 -0.0644,0.76342 0.64062,1.5343 2.18699,1.97943 1.54644,0.44481 -0.8007,0.39257 -2.73371,-0.17974 -1.93304,-0.57236 -0.3852,-1.00328 -1.09359,-2.33927 -0.70868,-1.33604 0.19127,-1.13052 1.09359,-2.33936 0.90216,-1.20877 0.66425,-0.45283 0.72891,-1.97939 0.0644,-1.52696 -0.0662,-1.39594 1.09359,-2.15937 1.15984,-0.76338 2.72996,-0.13665 4.92074,-0.8997 2.19072,-0.76366 0.23383,-0.24208 1.45793,-1.25964 1.22428,-1.01807 1.44504,-0.47642 2.73381,-0.53962 1.28865,-0.0636 0.89828,-0.71979 2.18696,-0.71979 1.28868,0 2.03406,0.38139 3.64494,0 1.61084,-0.38098 2.55881,-0.41279 4.55624,-0.53959 0.4067,-0.0302 0.71919,-0.6138 1.09355,-1.43963 -0.27858,0.005 -0.53147,-0.0748 -0.91124,0 -6.95112,-0.25239 -16.58414,-2.87967 -17.67816,-1.79948 -3.28232,3.78097 -3.82552,9.71525 -7.10779,13.49605 -3.2506,2.47739 -4.47898,3.54426 -8.01898,7.19792 -0.54721,0.54017 -9.07173,3.50749 -11.29943,3.77884 -5.44183,0.66269 -6.7379,-0.11226 -8.56575,0.35991 -4.92336,2.70062 -6.55947,16.19439 -9.29473,17.81472 -5.97803,-7.67596 -4.33597,3.13092 -11.48168,-8.09755 -4.37641,0 -7.46998,4.6789 -11.84621,4.13876 -1.0126,-0.94112 1.4517,-3.44326 -4.19166,-3.23905 -2.06969,0.0748 -1.48344,-5.01022 1.82242,-5.57836 4.2648,-0.73304 6.99729,-5.06269 10.75266,-8.27749 -0.22112,-7.82939 -1.2653,-10.77495 0.91125,-13.85594 -2.25807,0.18575 -2.703,1.44057 -5.28512,0.53958 -2.62799,-0.91569 -8.68806,5.26024 -9.47701,5.57837 -4.02385,-1.2101 -15.48948,-9.71738 -18.77168,-9.17728 -3.82939,0.54019 -7.65451,8.81739 -7.65451,8.81739 0,0 2.73404,-7.01616 2.18699,-10.25697 -0.54715,-4.86126 -10.19153,0.90839 -14.2154,0.17972 -2.96146,-3.84583 3.95183,1.16323 7.10769,-6.11816 1.0942,-2.70064 1.64115,-5.93678 0,-8.63746 -0.54723,-1.08025 -3.2802,1.08029 -3.82723,0 -1.09406,-0.54019 1.09289,-1.79918 2.18699,-2.33932 0,0 1.09355,0.54018 1.09355,0 0,-1.62038 -0.54606,-3.77821 -2.18705,-4.8585 -1.36757,-0.81018 -1.90982,-1.2553 -4.55623,0 -1.61723,-2.42963 -3.9828,-3.86031 -6.19643,-3.59896 -2.95295,-0.87089 -3.94357,-2.03808 -5.10306,-3.41896 -2.18818,0.54018 -3.27931,3.23816 -5.46748,4.85858 -1.09409,0.54015 -1.09646,0 -0.54665,-1.61957 -7.11153,-1.08033 -14.21155,-4.85799 -21.3231,-5.93827 -1.64113,0 -8.19907,0.54019 -12.02847,0 z m -3.64502,9.5372 c -3.22176,0.1277 -7.42256,1.923 -5.10293,3.95876 3.60825,1.52699 4.96118,2.2685 6.3787,0.35989 1.41753,-1.90856 1.94607,-4.44589 -1.27577,-4.31865 z m 202.8436,2.69913 c -2.57743,0.38139 -4.96119,-0.004 -6.37873,2.15937 -1.41753,2.16315 -1.60121,3.68628 -0.18206,2.15937 1.41758,-1.52691 3.49789,-1.53065 1.82247,2.15937 -1.67525,3.69007 -0.58209,2.58472 1.09358,1.43962 1.67528,-1.1452 1.80036,-1.39593 2.187,-2.15936 0.38696,-0.76348 0.53384,-0.0654 1.82253,1.07964 1.28859,1.14517 1.99167,2.03218 3.28045,2.15938 1.28869,0.12682 1.27574,-0.258 1.27574,2.15936 0,2.41762 0.32421,2.37019 -1.0935,2.87917 -1.41757,0.50914 -1.92926,0.44764 -2.18701,-1.07973 -0.25752,-1.52682 0.53783,-1.26862 -0.36413,-2.15933 -0.90209,-0.89067 0.19568,-0.94481 -1.0935,-0.17973 -1.28874,0.76339 -1.60894,0.92536 -1.0935,-1.61958 0.51574,-2.5448 -0.27595,-2.32254 -1.82246,-0.53958 -1.54652,1.78137 -0.41722,1.19419 -0.54665,2.33928 -0.12852,1.14517 0.0662,0.17113 -1.09345,-0.71976 -1.15984,-0.8907 -3.26756,0.12685 -4.55624,0 -1.28874,-0.12683 -0.18208,0.47467 -0.18208,1.61949 0,1.14522 0.92043,0.89976 1.82244,0.89976 0.90213,0 1.48014,-0.0461 1.09354,0.71977 -0.38694,0.76343 -0.48492,0.64538 0.54659,0.89975 1.03094,0.25454 1.6531,-0.67985 0.36413,0.71982 -1.28868,1.39969 -2.74292,1.98846 -3.64493,2.87912 -0.90214,0.89072 0.29789,1.07969 1.45793,1.07969 1.15988,0 0.81372,0.1673 1.45803,1.43958 0.64438,1.27246 1.77153,2.15938 -0.54663,2.15938 -2.31966,0 -3.44058,-0.88163 -3.82719,0.8997 -0.38693,1.78137 0.5559,2.70828 1.45799,3.599 4.51039,3.8172 5.21883,3.92797 6.37871,3.41895 1.15985,-0.50914 0.39573,-0.65804 0.91125,0.35991 0.51577,1.01798 1.91632,2.38296 3.46274,1.61953 1.5464,-0.76344 -1.95521,-2.87539 0.36414,-5.03855 2.31962,-2.1631 5.80602,-4.59505 8.38342,-3.95884 2.57734,0.6362 3.60457,2.09391 2.18705,3.2391 -1.41768,1.14514 2.08929,2.98064 2.73373,0.17973 0.64434,-2.79935 1.53722,-2.67364 -0.91129,-5.21848 -2.44852,-2.54486 -4.77885,-0.87037 -6.19649,-5.57838 -1.41752,-4.70788 3.25835,-2.12098 3.64494,-5.93819 0.38695,-3.81726 -1.96574,-3.87523 -5.83193,-3.23911 -3.8661,0.63625 -6.24982,0.51258 -6.37876,-2.15937 -0.12854,-2.67204 0.11626,-1.75579 1.27575,-2.51927 1.15978,-0.76339 1.48392,-2.54102 -1.09345,-2.15937 z m -196.64706,11.51665 c -0.66052,-0.0344 -2.07648,0.48558 -4.00952,1.43954 -1.15973,0.76353 -1.053,0.79056 0.36416,2.69921 1.41757,1.90869 2.48523,0.3328 3.64505,-2.33926 0.57978,-1.3361 0.66045,-1.76772 0,-1.79949 z m 100.23713,1.79949 c -3.1568,0.7083 -3.73154,5.33879 -3.28048,6.11816 0.51571,0.89071 0.94248,0.51835 1.45793,0.89975 2.44856,-0.89071 2.49814,-1.11253 2.36939,0.53959 -0.12906,1.65413 0.92954,3.73903 2.73366,2.33936 1.80423,-1.39969 2.82759,-1.40871 4.37397,-0.89975 1.54647,0.50915 3.20889,1.32884 1.27574,-1.97941 -1.93298,-3.30835 -2.96173,-6.38167 -7.47218,-7.01798 -0.56404,-0.0791 -1.00703,-0.10108 -1.45803,0 z m 88.20869,0.53957 c -0.94838,0.10109 -1.8749,1.18323 -2.55152,2.51928 -0.90205,1.78142 1.17435,0.55283 4.00955,-0.71978 0.25752,-0.50918 0.74046,-0.5488 -0.54663,-1.4396 -0.32158,-0.22317 -0.59508,-0.39386 -0.91123,-0.3599 z m -69.43698,35.26955 c -0.12163,-0.0636 -0.42864,0.0344 -0.91122,0.17974 -1.93312,0.57234 -6.02721,1.43581 -4.73853,3.59894 1.28873,2.16307 1.99371,2.32233 2.18701,0.53958 0.19303,-1.78136 0.67668,-2.363 0.54659,-0.89972 -0.12855,1.46321 -0.15308,4.60282 1.45802,-0.35991 0.82159,-1.76538 1.82352,-2.86819 1.45799,-3.05911 z m -207.0862,27.76944 c 4.89708,-1.14513 7.73219,-0.89072 5.67027,0.25454 -2.06193,1.14517 -1.54642,3.18101 -3.47941,2.54481 -1.93307,-0.63619 -3.35065,-2.03586 -2.19086,-2.79931 z m 9.92295,-4.58065 c 8.76314,-0.50915 12.37154,0.50915 6.31461,0.6362 -6.0569,0.12683 -10.18064,0 -6.31461,-0.6362 z m 14.69121,-1.52696 c 4.3815,-0.50915 5.92793,-1.52687 -0.51576,-1.52687 -6.44346,0 -3.09285,1.90862 0.51576,1.52687 z m 7.21673,-2.1631 c 1.54635,0.8907 2.19079,2.41765 0.51572,1.78141 -1.67528,-0.63625 -2.19073,-2.16307 -0.51572,-1.78141 z m 4.76807,-1.01795 c 4.76828,0 6.18581,1.27245 2.44861,1.14525 -3.73721,-0.12766 -2.83511,0.12682 -3.09288,0.89071 -0.25752,0.7634 -2.44847,0.5091 -1.80426,-0.89071 0.64439,-1.39967 0.64439,-1.01793 2.44853,-1.14525 z m 9.66536,0 c 2.70625,-0.63621 3.47941,-0.8907 0.77317,-1.01785 -2.70633,-0.12769 -3.3506,-0.25455 -3.3506,0.6362 0,0.89063 1.15979,0.25455 2.57743,0.38139 z"
         inkscape:connector-curvature="0" />
      <path
         style="fill:none;fill-opacity:0.91176471;stroke:#f7f7f7;stroke-width:10;stroke-miterlimit:4;stroke-dasharray:none;stroke-opacity:1"
         id="at-3"
         d="m 578.66585,773.13489 c -0.48203,-0.0388 -1.02875,0.0975 -1.45825,0.17973 -0.57279,0.10922 -1.04805,0.31475 -1.45826,0.71979 -0.54721,1.08028 0.54717,16.73446 -0.54664,17.81479 -1.0941,1.62026 -4.92091,-2.16052 -7.10907,-0.53958 l -4.37479,14.03587 c -3.82926,1.08025 -7.65468,-3.7789 -11.48397,-3.7789 -2.18817,0 -1.63975,4.31853 -3.82787,4.85859 -11.488,4.32108 -18.04331,-7.01563 -26.79586,-11.33666 h -0.5466 c 0.54721,1.62039 1.09367,3.23819 1.09367,4.85854 -0.54717,14.5836 -3.82397,11.33808 -15.3119,8.63744 -1.09407,0 -2.18711,0.53904 -2.73423,1.61958 -1.09409,5.40123 2.18931,11.33438 -3.28109,15.65537 -4.92356,3.78105 -28.07168,9.17261 -28.61862,17.81478 0,0 13.12436,17.81439 13.12436,18.35459 0.54722,0.54013 -7.10996,7.01671 -4.37479,9.17729 6.01757,5.4013 12.03249,-2.7089 7.10918,15.11558 0,1.08022 -1.09337,2.69916 -2.18748,2.69916 -17.50533,-4.86125 -3.82504,-13.49574 -12.03078,-14.03584 -4.37618,0 -8.20131,3.77921 -12.57758,3.23901 -2.18825,-0.54018 -1.64006,-4.31839 -3.28118,-4.85854 -3.2822,-1.08025 -6.5613,1.61983 -9.29647,0.53959 -1.09407,-0.54019 1.09415,-3.77887 0,-3.77887 -6.56452,0.54019 -0.54664,9.17709 -2.18739,9.71715 -7.65859,2.16061 -20.23117,-1.08119 -27.34268,1.61953 -2.18817,1.08028 -1.09293,4.85798 -3.28107,5.93822 -2.18813,1.62038 -4.92099,-1.08027 -7.10908,0.53959 -1.64124,0.54018 0.54717,3.23864 -0.54664,4.31875 -0.54716,0.54014 -19.13902,5.39898 -21.32721,4.31874 -1.09412,-1.08029 -1.7e-4,-3.77817 -1.09372,-4.8586 -0.54718,-1.08019 -3.28103,-1.07916 -3.82798,-2.15935 -0.54715,-1.0803 2.73443,-0.53903 2.18745,-1.61954 -2.18822,-7.02178 -17.49788,1.62224 -21.87418,-3.23902 0,0 1.09373,-0.53959 1.09373,-1.07965 -3.28229,-2.16057 -2.3e-4,7.01587 -1.09373,10.7968 0,2.16048 -10.38882,14.57782 -14.21817,10.79681 -2.18822,-2.16045 3.82847,-5.39723 2.18745,-7.55776 -0.5472,-0.54019 -2.18705,1.61952 -3.28115,1.61952 -1.09412,0 -2.73417,-0.53902 -3.28108,-1.61952 -1.09425,-1.62039 2.73509,-3.77766 0,-5.93829 -2.18826,-1.62033 -3.28028,-4.31812 -5.46855,-5.39837 -1.64102,-1.0803 -3.82713,1.61978 -6.01541,1.07964 -1.09407,-1.0802 -2.3e-4,-3.77827 -1.09373,-4.85855 -2.73513,-2.16057 -2.18436,7.5591 -10.937,4.85855 -0.54722,-0.54014 -1.09359,-0.53958 -1.64063,-0.53958 v 0.53958 c 0,3.781 7.10988,4.85566 4.9217,10.25702 -0.54717,1.08025 -2.734,0.53958 -3.28107,1.07965 -0.54722,1.62047 -2.18695,5.93564 -3.82806,10.79685 l 2.73425,5.93828 v 6.47808 c 5.47056,0.54018 14.218,1.61948 14.76516,1.61948 1.09412,1.0803 -1.64128,2.6987 -0.54663,3.7789 2.73525,3.24074 6.01401,5.3975 9.84338,7.01792 8.75265,4.32107 10.38805,-10.25749 16.4056,-9.17728 11.48788,1.62048 -0.54833,7.55686 3.28112,9.17728 8.7526,4.32107 1.09074,-1.0802 9.84334,0 4.37638,0.54019 8.74669,11.87913 17.49929,7.01797 l 7.10913,-14.57568 c 4.37627,-3.24082 23.51299,-1.07939 28.4363,-1.61957 8.20569,-0.54016 14.76218,-7.55777 22.96783,-7.55777 2.18822,0 -3.82775,2.69801 -4.3748,4.8586 -2.7353,11.34272 4.37323,3.77538 8.74964,10.25697 1.09407,1.62043 -1.64115,3.77771 -0.5466,5.93824 0.54721,1.08028 2.18699,-1.08026 3.28111,0 10.39376,7.56188 18.40584,9.89582 32.62884,12.05644 17.42906,5.38378 15.78342,-0.74108 34.81634,3.23902 0.089,0.095 0.27462,0.0855 0.36414,0.17973 0.022,-0.18317 -0.005,-0.35345 0,-0.53961 4.69781,1.8437 8.01747,-0.51259 10.02566,1.25957 4.55852,3.05933 7.10781,-0.81004 13.12444,4.31876 4.37634,0.54015 9.295,-4.22932 13.30679,-0.17973 1.82404,2.24948 2.64221,-2.24937 5.46851,3.41896 1.09391,0.54018 0.54659,-4.13851 1.64057,-4.6786 5.05489,-0.53791 2.70632,-5.4023 9.11424,-5.39838 2.15819,-1.58841 0.71774,-4.51358 4.37479,-8.27761 1.45101,2.19756 1.70261,-1.03678 2.73429,-1.25963 1.71799,-0.37064 0.77403,4.54367 3.09885,-0.53959 1.09257,-2.38915 6.03475,-1.91088 8.38507,-1.61947 4.63263,0.57467 7.91165,-1.48018 10.20788,-1.25965 4.59267,0.44078 2.63853,4.18168 6.01541,2.33927 3.28226,-1.62038 -1.6297,-3.88011 7.83824,-7.3778 7.24838,2.19552 5.39642,-5.69844 17.86386,2.15937 1.64104,-0.54019 -1.64028,-3.41818 -2.1874,-5.03849 -1.07073,-5.63849 1.92771,-8.43605 6.37999,-9.71719 0.24742,-0.0461 0.48257,-0.13325 0.72909,-0.17972 0.1211,-0.14969 1.48848,-2.03795 3.64569,-5.03854 2.44882,-5.53964 6.98651,-6.40563 9.84334,-5.3984 2.857,1.00724 3.91514,1.86962 3.09887,-2.15937 -0.81627,-4.02898 -0.15272,-5.76628 1.276,-7.37782 1.42842,-1.61155 -3.15046,1.56067 -4.37487,-1.25962 -1.22434,-2.82021 0.75893,-5.36334 2.18739,-7.37787 1.42841,-2.01447 -0.57687,-1.31845 -2.00515,-4.13874 -1.42847,-2.82027 0.43081,-2.51368 -0.18207,-5.93828 -0.61218,-3.42464 6.36617,1.53916 8.2028,-1.07969 1.83652,-2.61881 2.52215,-2.17524 1.09369,-5.39839 -1.42842,-3.22324 2.31807,-3.11794 1.09376,-5.93827 -1.22442,-2.82021 -7.37286,-0.68471 -10.02567,-2.69921 -2.65284,-2.01447 -2.04068,-4.14673 0,-5.75829 2.04064,-1.61162 2.00748,-6.19627 7.10904,-3.7789 5.10166,2.41731 8.61901,3.5695 9.84334,2.15936 1.22442,-1.41013 6.54858,2.03612 8.38508,-0.17972 1.83665,-2.21596 3.98047,-2.71514 2.55203,-5.93827 -1.42847,-3.22316 0.18776,-2.5351 -3.28108,-5.7583 -3.46913,-3.22319 1.9397,-0.10971 2.55197,-4.13884 0.49887,-3.28382 -2.48278,-7.88593 0.91143,-8.99729 -0.0732,-0.11954 -0.10833,-0.24038 -0.18207,-0.35991 -6.56459,-7.02179 -12.02912,-14.03153 -16.95243,-22.13349 -4.3764,-7.02165 11.48778,-18.35023 0,-26.45222 -1.64118,-1.08025 -3.82753,2.15937 -5.46854,2.15937 -2.73517,-0.54018 -8.20145,-7.55832 -12.03077,-6.47811 -2.73509,1.08034 -3.82688,5.39753 -7.10911,7.01791 -2.18817,0.54018 -4.92094,-0.53959 -7.10907,-0.53959 -14.7722,-1.62133 -27.33921,-13.49689 -43.2034,-13.49689 -2.73527,0 -4.92068,3.2391 -7.65604,3.2391 -1.09401,-0.54018 -1.7e-4,-3.2388 -1.09362,-3.77891 -1.23086,-0.60769 -2.74662,-1.32154 -4.19259,-1.43957 z m 106.08952,123.80354 c -9.34936,7.96689 -17.57348,14.04727 -23.33241,18.17467 9.45801,-4.44826 17.56053,-10.54477 23.33241,-18.17467 z"
         inkscape:connector-curvature="0" />
      <path
         style="fill:none;fill-opacity:0.91176471;stroke:#f7f7f7;stroke-width:10;stroke-miterlimit:4;stroke-dasharray:none;stroke-opacity:1"
         id="cz-1"
         d="m 533.1269,635.58973 c -1.09407,2.70062 8.74917,4.85767 6.56105,6.47806 -6.56452,5.40143 -15.85218,5.93634 -22.41669,9.71717 -1.09412,0.5402 5.7e-4,3.23882 -1.09355,3.77888 -4.37626,2.16055 -10.38645,-1.08103 -13.66866,1.61952 -2.73527,2.16058 -1.63874,6.47691 -4.37396,8.6375 -1.09412,1.08027 -2.18611,-2.69958 -3.82733,-2.15938 -4.92339,1.0803 -5.64794,7.55657 -8.93013,9.71712 -1.64117,1.62039 -4.91986,-1.07972 -6.561,0.53961 -1.6411,1.08033 8.6e-4,4.31787 -1.64024,5.93826 -2.18825,2.70055 -8.20035,-2.15937 -9.84145,-2.15937 -13.67604,2.16057 -15.85335,12.41166 -20.22972,21.05371 -1.09402,2.16049 -1.09223,-5.39744 -3.28045,-7.01787 -1.5169,-1.997 -3.48753,-5.40506 -5.4675,-3.9588 -1.677,1.22492 1.6555,2.69624 0.18207,3.5989 -0.46741,0.28637 -0.98276,0.49305 -1.27578,0.71984 0.20881,0.57236 0.42554,1.17613 1.8225,2.15932 1.397,0.9832 3.4738,1.85925 3.28046,3.9588 -0.075,0.82155 0.003,2.02232 0,3.23908 2.81072,3.92179 6.34225,7.77726 10.20607,10.25692 1.09402,0.5402 4.92038,1.25793 5.46745,4.4987 1.64107,7.56188 -5.46689,4.85533 -6.56104,10.79682 6.89763,5.41418 7.17508,8.59454 13.122,23.03319 2.41527,0.172 4.25711,0.57528 5.83193,3.59891 0.39134,0.75234 -1.61007,1.86996 -0.729,2.51928 3.40275,2.50746 8.25597,-1.38551 12.39293,2.69916 3.82928,3.78101 4.37195,9.71545 8.20122,12.95624 7.65863,5.40131 26.97091,12.41043 30.80023,23.21313 h 0.54661 c 8.75265,4.32103 15.30275,15.65768 26.79067,11.33667 2.18823,-0.5402 1.63896,-4.85855 3.82718,-4.85855 3.82929,0 7.65235,4.8591 11.48169,3.77882 l 4.37405,-14.03584 c 2.18822,-1.6204 6.01364,2.16108 7.10771,0.53958 1.09415,-1.0803 5.7e-4,-16.73441 0.54661,-17.8147 1.6411,-1.62038 4.91957,-0.53959 7.10775,0.53958 1.09408,0.5402 -6.6e-4,3.23876 1.09351,3.77888 2.73527,0 4.91924,-3.23902 7.65446,-3.23902 15.86419,0 28.42295,11.87555 43.19303,13.49603 2.18827,0 4.91954,1.08081 7.10776,0.53958 3.28226,-1.62038 4.37251,-5.93763 7.1077,-7.01792 3.82938,-1.08028 9.29331,5.93795 12.02849,6.47808 1.64105,0 3.82635,-3.2397 5.4675,-2.15932 2.73517,2.16053 3.82722,4.31748 3.82722,6.47806 8.20559,-31.86777 26.23502,-4.84753 42.64637,-25.3725 1.0941,-1.62034 -0.54665,-4.31788 0.54659,-5.93824 1.64114,-2.16058 5.46665,-1.07847 7.10773,-3.23904 0,0 4.37396,-16.73477 4.37396,-17.2749 4.92344,-8.6421 18.03772,-15.65305 27.33744,-19.97409 -2.18822,-2.70071 -0.54546,-7.73628 -2.73377,-10.43692 -2.1882,-2.16057 -6.55968,-0.53902 -8.74796,-2.15935 -0.54717,-0.54017 -5.46714,-13.49575 -6.01418,-14.03586 -2.73526,-2.16057 -7.65274,-0.53902 -10.93495,-1.61947 -2.73514,-0.54019 -8.74687,-2.15852 -10.935,-3.77891 -1.09412,-0.54018 -1.09289,-2.69948 -2.18699,-2.15937 -9.29984,3.78092 8.75658,4.85768 -7.10774,6.47811 -1.09402,0 -2.73311,-0.53962 -3.82727,-1.61957 -1.64106,-1.62039 -1.09258,-4.31785 -2.73373,-5.93828 -2.18818,-1.62031 -9.84263,-2.15842 -7.65441,-3.77881 7.1115,-6.48169 11.48528,1.62654 4.92069,-11.33667 0,-0.54018 -1.09317,-0.54018 -1.64022,0 -0.54721,1.08028 5.7e-4,3.23872 -1.0935,3.77886 -2.1882,1.0803 -4.91946,0 -7.10774,0 -2.18819,0 -4.91949,1.08086 -7.10768,0.5396 -4.92349,-1.62041 -14.21106,-9.71782 -22.41667,-8.63749 -3.28242,0.54016 8.74826,12.41569 8.20118,13.49602 -1.64108,3.24074 -7.10623,2.1583 -9.84145,4.31874 -1.64116,1.6204 -1.09224,5.39781 -3.28046,6.47808 -8.20563,3.24083 -11.48084,-10.79561 -13.12196,-12.95619 l -12.57521,-7.5578 c -1.09404,-7.0217 19.69085,-9.71339 4.92071,-16.73497 -2.73531,-1.62047 -14.76221,4.8585 -14.76221,4.8585 -1.6411,-1.62043 8.8e-4,-4.31783 -1.64022,-5.93818 -0.54718,-1.08028 -2.18613,6e-4 -3.82719,0.53962 -0.54721,0 -1.09302,1.61975 -2.18704,1.07965 -1.09411,-1.62039 -0.54545,-4.3179 -2.73373,-5.93824 -7.1115,-4.32115 -14.21071,0.54364 -22.96336,-6.47816 -6.01757,-4.32105 2.19227,-8.6368 -7.65454,-9.71718 -15.3172,-2.70055 3.97195,13.44991 -12.98521,11.06677 -1.0942,2.16052 -1.22923,4.04888 -2.87048,4.04888 -0.94248,0.215 -2.02248,-0.1952 -3.09825,-0.89972 -2.02727,-0.3096 -4.17964,-0.85426 -3.50103,-3.40513 0.67859,-2.55086 1.33899,-4.71033 -0.69073,-3.6129 -0.67653,0.36549 -1.27675,1.01726 -1.82247,0.89975 -0.54603,-0.11734 -0.73212,-0.82174 -0.30096,-2.84296 0.43214,-2.02121 0.37247,-2.43727 -4.07325,-3.45522 -0.45929,-0.10531 -0.82681,-0.12935 -1.27579,-0.17973 -0.30709,-0.29925 -0.56172,-0.7925 -1.04766,-0.78058 -0.4861,0.0136 -0.81649,0.6896 -1.99226,0.75427 -1.17569,0.0646 -1.9875,-1.92241 -3.47329,-2.41593 -1.48581,-0.49363 -2.38685,1.98676 -3.32712,4.60303 z"
         inkscape:connector-curvature="0" />
      <path
         style="fill:none;fill-opacity:0.91176471;stroke:#f7f7f7;stroke-width:10;stroke-miterlimit:4;stroke-dasharray:none;stroke-opacity:1"
         id="sk-2"
         d="m 873.38641,709.00804 c -3.00868,0.16899 -5.60302,0.53964 -7.65446,1.07969 -1.6411,0 -1.63936,3.4187 -3.28049,3.95881 -2.18816,1.0803 -5.46663,-6.48211 -7.1077,1.07974 0,1.0802 3.28071,1.079 2.73374,2.15937 -1.64116,2.70059 -4.37225,5.93823 -7.6545,5.93823 -4.37634,0 -7.10541,-5.93796 -11.48167,-6.47807 -2.18823,-0.54019 -3.27933,2.69891 -5.46747,3.23901 -2.18822,0 -4.55506,-2.15968 -6.74328,-1.61953 -7.65853,1.6204 -14.21519,18.35428 -14.76218,18.89444 -2.18823,1.08019 -4.3728,-3.23932 -6.56095,-2.69919 -2.73532,0.5402 -7.65451,4.86002 -7.65451,2.15933 0,-1.08028 3.28261,-11.33575 -0.54663,-12.95615 -2.18811,-1.08028 -4.91933,1.61989 -7.65451,1.07963 -1.09407,-0.54013 1.09386,-2.69859 0.5466,-3.77881 -0.54717,-0.54017 -2.73351,1.07995 -3.28054,0.53959 -2.73521,-2.70063 -2.73201,-7.73654 -6.01423,-9.89713 -5.47047,-3.78097 -12.57045,23.93673 -21.32321,16.91506 -1.64102,-1.62041 1.09446,-5.39752 -0.54661,-7.01793 -1.6411,-1.62039 -5.46687,1.08052 -6.5609,-0.53959 -9.29972,4.32103 -22.41405,11.33198 -27.33744,19.97409 0,0.54014 -4.37402,17.27485 -4.37402,17.27485 -1.64105,2.16058 -5.46658,1.07851 -7.10767,3.23909 -1.0941,1.62036 0.54717,4.31784 -0.54664,5.9382 -16.41135,19.98487 -34.44101,-6.49528 -42.09958,25.37254 0.54715,7.02166 -7.65625,14.57272 -4.37401,19.97412 4.92341,8.10182 10.38463,15.11166 16.94918,22.13344 1.09407,-0.5402 2.73249,-1.08003 4.92074,-0.53964 9.84676,1.08038 17.49029,15.11438 27.88416,17.27496 6.56443,1.08028 53.03577,-7.01586 50.84758,-10.79682 -2.18822,-3.24074 -9.84534,-10.79447 -2.7338,-15.11558 7.65856,-5.40127 24.60042,-1.61631 30.61793,-7.55775 2.18811,-2.16059 -0.54777,-7.01642 1.0935,-9.71706 4.37624,-7.56189 14.21309,4.31901 18.58946,3.77886 13.67595,-2.16052 1.08877,-5.93531 9.84141,-11.33666 2.18827,-1.08026 5.64847,1.07999 7.83669,0.53957 6.01742,-2.70075 3.82556,-17.27261 7.10777,-21.59367 8.20558,-10.26246 20.22468,-0.53904 29.52436,-2.15934 5.47053,-0.54018 8.74506,-8.09759 14.21545,-8.09759 13.67615,0.54017 5.46189,10.79505 15.85568,14.03583 1.64116,1.08028 3.82613,-1.61923 6.01432,-2.15933 4.37628,-1.08038 9.22523,-0.97929 12.21064,-4.13885 0.0755,-0.0891 0.26632,-0.4231 0.36459,-0.53958 -0.1434,-9.8e-4 -0.21455,-9.8e-4 -0.36459,0 0,-4.32102 -3.64554,-8.99524 -2.55147,-12.77617 0.54721,-3.78095 5.46661,-4.85656 7.10768,-8.63744 1.64119,-3.24083 1.09324,-7.01593 1.64031,-10.79687 0.52449,-5.17626 4.79312,-12.29023 4.64737,-17.58978 -0.90324,-0.43268 -1.92724,-0.41793 -3.00714,-0.76476 -4.9234,-0.54014 -6.37604,-0.89883 -11.29943,-2.51925 -3.82942,-1.0803 -7.65279,-1.07849 -10.93496,-3.23907 -2.18827,-1.08028 -1.63939,-4.8577 -3.28045,-6.47812 -5.33374,-4.051 -17.21776,-5.54484 -26.244,-5.03845 z"
         inkscape:connector-curvature="0" />
      <path
         style="fill:none;fill-opacity:0.91176471;stroke:#f7f7f7;stroke-width:10;stroke-miterlimit:4;stroke-dasharray:none;stroke-opacity:1"
         id="hu-3"
         d="m 883.26303,769.71588 c -5.47048,0 -8.74773,7.55746 -14.21821,8.09757 -9.29968,1.62042 -21.32445,-8.10308 -29.53005,2.15936 -3.28222,4.32103 -1.09162,18.89302 -7.1091,21.59369 -2.18822,0.54013 -5.64999,-1.62098 -7.83822,-0.53958 -8.7527,5.40132 3.83266,9.17613 -9.84335,11.33662 -4.37636,0.54019 -14.21672,-11.3407 -18.593,-3.7789 -1.64115,2.70064 1.09439,7.55655 -1.09372,9.71713 -6.01742,5.94147 -22.96525,2.15649 -30.62375,7.55781 -7.11152,4.32111 0.54604,11.87479 2.73426,15.11557 2.18819,3.78092 -44.29286,11.87709 -50.85732,10.79678 -10.39393,-2.16058 -18.04277,-16.19456 -27.88958,-17.27486 -2.18817,-0.54018 -3.08776,-0.25111 -5.15039,0.62923 -2.06253,0.88043 -0.0138,6.05987 -0.5006,9.26781 -0.61224,4.02885 -6.02108,0.91565 -2.55193,4.13879 3.46915,3.22325 1.8526,2.53515 3.28107,5.75829 1.42842,3.22316 -0.71537,3.72232 -2.552,5.93828 -1.83653,2.21606 -7.1607,-1.23022 -8.3851,0.17974 -1.22432,1.41012 -4.74178,0.25797 -9.84335,-2.15938 -5.1016,-2.41736 -5.06839,2.16734 -7.10904,3.7789 -2.04068,1.61158 -2.65292,3.74382 0,5.75832 2.65283,2.01448 8.80127,-0.12073 10.02567,2.69919 1.22432,2.82034 -2.52218,2.71507 -1.09377,5.93827 1.42846,3.22315 0.74284,2.77958 -1.09371,5.39839 -1.8366,2.61886 -8.81499,-2.34492 -8.20276,1.07972 0.61249,3.42457 -1.24621,3.11799 0.18207,5.93829 1.42855,2.82024 3.43356,2.12424 2.00514,4.13875 -1.42844,2.01447 -3.41171,4.5576 -2.18739,7.3778 1.22442,2.82036 5.80328,-0.3517 4.37484,1.25965 -1.42847,1.61153 -2.09224,3.34883 -1.27596,7.37781 0.81628,4.02902 -0.24217,3.16666 -3.09888,2.15937 -2.85692,-1.00723 -7.39452,-0.14139 -9.84334,5.39839 -2.1064,2.93004 -3.46055,4.62881 -3.64567,4.85859 -0.2549,0.0972 -0.47274,0.2653 -0.72912,0.35989 0.17504,-0.0516 0.36722,0.0461 0.54655,0 l 5.10402,-0.71973 c 0.80537,-0.0598 1.5626,-0.17974 2.3697,-0.17974 0.27332,0 0.48258,0.26873 0.72915,0.71979 2.20479,3.04032 5.81394,17.19807 16.04097,25.3725 0.0139,0.0575 -0.0138,0.12258 0,0.17973 0.31808,0.0216 0.67427,0.16729 1.09368,0.3599 0.96644,0.44589 2.18745,0.35989 2.18745,0.35989 l 2.91653,4.4987 1.09376,-0.7198 0.54661,1.07967 2.73426,-0.17975 0.54659,0.53959 h 1.27601 c 1.46267,2.3474 3.05592,3.03498 2.91657,6.29817 1.73064,0.6479 2.46146,1.70044 3.6457,2.51931 l 1.09362,-0.17974 0.18207,1.25963 c 4.16814,1.11646 7.91216,2.30674 9.47877,3.77895 -2.57233,2.79249 0.38826,0.53266 1.45834,1.61944 5.87541,5.97015 5.55502,6.7307 4.73931,8.09766 1.96553,0.48558 1.6765,1.92348 4.37488,1.07973 -0.68699,1.10776 -1.65541,0.81863 -1.45826,1.97938 1.03209,-0.65944 2.01473,-1.50783 3.09879,-1.97938 0.697,1.37726 -0.85893,1.65952 1.09376,2.15937 0.12853,0.50913 -0.76052,0.42353 -1.27601,0.35989 -2.02015,1.15542 3.37913,2.66134 3.64565,-0.17973 1.69225,0.3311 4.06616,1.3751 6.01546,0.35989 2.03174,1.50562 3.88644,2.43761 5.10388,4.49865 3.68857,2.40291 7.61027,2.26074 11.66624,6.11818 0.67611,-1.69061 5.00345,-3.56201 7.29133,-1.79942 l 4.01027,0.35989 c 1.92899,-1.5059 4.08712,-2.86755 7.10909,-0.53958 0.99684,-0.0611 2.10253,0.817 2.91654,-0.17974 l 2.18743,0.53958 c 0.33474,0.0172 3.26946,-3.14562 3.28112,0.17974 0.80038,-0.66901 3.53811,1.42848 2.18739,-1.97942 1.28342,-0.2868 3.05741,0.005 2.00515,-2.33934 l 1.09372,0.53963 c 0.8684,-0.68591 2.98507,-0.77976 2.73425,-2.15936 0.86459,-0.45226 2.93773,-1.97267 2.00512,-3.05913 1.02532,-2.39529 1.21134,-1.557 1.64056,-4.67863 l 2.00517,-0.53957 c 1.90395,0.89026 3.17296,2.16507 5.65079,2.15935 0.0618,-0.9198 -0.79896,-1.89721 0.18205,-2.6992 0.38169,0.56376 2.47144,0.91169 2.1874,-0.71981 0,0 0.38388,-0.002 0.54661,0 0.0465,-0.13291 0.13423,-0.22658 0.18206,-0.35989 1.78571,-1.87957 6.59553,1.04637 5.10403,-2.51922 -0.52863,-1.02744 4.11673,-0.99261 3.82797,-3.05911 -0.23032,-1.6489 0.40318,-2.50611 1.27601,-4.1388 2.49581,-2.01902 0.3887,3.43441 6.01535,2.69918 5.90899,-0.77207 2.96244,-2.32479 3.82793,-3.41897 2.53191,-3.20083 2.77946,-0.31432 4.01032,-1.2596 2.46172,-1.89054 4.37105,-4.97331 5.4685,-7.37784 2.26386,-4.96032 2.70744,-2.4297 4.3748,-3.41898 7.48188,-4.43931 3.10996,0.88853 10.02566,1.61945 3.75295,-1.59045 4.63675,-3.03357 6.74451,-3.7788 4.48996,-1.58773 3.79687,3.16282 5.83316,0.17971 1.17489,-1.72069 2.12177,1.37831 4.73933,-0.17971 1.85976,-1.10748 3.29791,1.63817 5.46853,2.33925 -0.12628,-0.38223 -0.18774,-0.87019 -0.54658,-1.43952 1.8351,-6.20757 20.80585,-4.48467 24.97296,-7.01797 0.30665,-0.29669 0.63419,-0.57174 0.72914,-0.89974 1.09402,-2.16052 -7.11256,-4.85755 2.73425,-6.47808 1.91455,-0.27001 3.80605,0.51718 5.65083,1.25965 0.92231,0.37107 1.85441,0.70572 2.73426,0.89973 0.8798,0.19435 1.73135,0.27005 2.55197,0 1.94886,-0.70891 3.44032,-1.98192 4.55706,-3.59899 4.8393,-7.00752 3.064,-20.72495 5.28622,-25.55245 1.09418,-1.6204 3.82767,-1.61868 4.92171,-3.23907 l 6.01754,-18.89499 c 0.54723,-1.35031 1.2762,-2.56466 1.82286,-3.77889 0.27334,-0.60718 0.55824,-1.17537 0.72917,-1.79949 0.17104,-0.62412 0.18205,-1.30426 0.18205,-1.97941 0,-0.27005 -0.10832,-0.55112 -0.36412,-0.71974 -0.51288,-0.33755 -1.4926,-0.38227 -2.00516,-0.71986 -0.25577,-0.16898 -0.36413,-0.44992 -0.36413,-0.71978 0.13735,-1.21527 0.59258,-3.05064 1.27597,-5.21849 2.04999,-6.50317 5.96908,-15.83364 8.02051,-19.07433 0.5472,-0.54018 1.54967,-0.47349 2.36973,-0.53958 0.40976,-0.0344 0.82039,-0.21672 1.09366,-0.3599 0.27334,-0.14359 0.36414,-0.31431 0.36414,-0.71982 2.73522,-10.26254 -1.09792,-17.80868 10.93705,-29.15141 0.95734,-1.08033 1.87457,-1.77133 2.91656,-2.15939 0.52096,-0.19433 1.09187,-0.26959 1.64056,-0.35989 2.19495,-0.36204 4.66237,-0.15392 7.47363,-0.71983 0.70286,-0.14155 1.43529,-0.27003 2.18747,-0.53957 4.51313,-2.02548 5.92228,-7.11068 8.20282,-11.33668 0.38036,-0.70427 0.83057,-1.33927 1.27597,-1.97939 0.44595,-0.64016 0.91124,-1.25931 1.45822,-1.79951 -6.56441,-5.40133 2.1899,-4.31604 -4.92164,-9.1773 -1.09416,-0.54018 -2.73372,-1.61949 -4.37482,-1.61949 -2.18814,0.54019 -3.82724,3.23932 -6.01541,2.69923 -3.28226,-2.16058 -3.64448,-7.01681 -6.9268,-9.1773 -1.64107,-1.08037 -4.37428,1.61975 -6.01535,1.07965 -8.63782,-3.19822 -1.96019,-9.46569 -12.75994,-9.53719 -0.0522,0.0575 -0.13165,0.12343 -0.18208,0.17973 -1.54905,3.15139 -8.01898,3.41831 -12.39535,4.49865 -2.18818,0.54016 -4.37421,3.23968 -6.01537,2.15938 -10.39378,-3.24083 -2.18266,-13.49582 -15.85871,-14.03589 z"
         inkscape:connector-curvature="0" />
      <path
         style="fill:none;fill-opacity:0.91176471;stroke:#f7f7f7;stroke-width:10;stroke-miterlimit:4;stroke-dasharray:none;stroke-opacity:1"
         id="nl-3"
         d="m 183.39045,459.60168 c -0.61852,0.0136 -1.47507,0.12479 -2.36931,0.17974 -1.78841,0.11056 -3.98663,0.35989 -5.28521,0.35989 -0.61384,-0.0461 -0.99232,1.50009 -1.27577,2.33932 -0.28298,0.83906 -0.10747,1.67938 0.36457,1.25964 0.47266,-0.41966 0.7025,-1.25964 1.45794,-1.25964 0.75561,0 3.8148,-0.65352 5.46754,-1.25963 1.65269,-0.60611 3.11164,-1.0198 2.73372,-1.43958 -0.0943,-0.10448 -0.47503,-0.19307 -1.09348,-0.17974 z m -28.61317,1.43963 c -0.27769,-0.11056 -0.70908,-0.0516 -1.27574,0.17973 -1.1334,0.46662 -1.47811,1.46001 -0.91125,2.15937 0.56696,0.6992 1.37762,1.21966 2.36921,1.07974 0.99162,-0.1402 1.93105,-1.30572 2.73372,-1.25964 0.80275,0.0461 1.5749,1.24571 4.73852,0.35989 3.16367,-0.88589 4.9951,-0.61994 5.46745,-0.89982 0.47269,-0.27949 -0.54834,-0.81305 -3.09821,-0.71975 -2.54986,0.0933 -7.39275,0.24638 -9.6592,-0.35989 -0.022,-0.11617 -0.0869,-0.4287 -0.36459,-0.53959 z m -6.19651,1.25964 c -1.34132,0.0516 -3.35736,0.58494 -4.73843,0.89973 -1.84159,0.42009 -8.39089,1.46634 -9.477,1.97939 -0.84999,0.42008 -1.95076,2.05281 -2.18706,2.51927 -0.23602,0.46606 1.29654,0.86662 2.0048,0.53958 0.70827,-0.32635 0.9933,-0.97976 2.55149,-1.25963 1.55828,-0.27992 3.46357,-0.14748 4.73848,-1.07965 1.27488,-0.93247 1.25009,-0.76583 3.28051,-0.71979 2.03041,0.0461 2.92337,-1.25297 4.00946,-1.43958 1.08608,-0.18663 2.09183,-0.74657 0.9113,-1.25964 -0.29482,-0.12818 -0.64644,-0.19823 -1.09355,-0.17973 z m 47.38484,0.35989 c -13.8363,0.77543 -47.63301,8.67888 -51.94112,15.29555 -1.80684,2.14094 -2.84727,4.31437 -4.00942,6.29814 l -14.57994,12.95615 -2.55152,-0.3599 c -1.84788,1.89174 -2.33217,3.44231 -6.19651,2.15934 -2.44663,-0.81224 -2.69724,-2.05633 -1.64014,-4.85852 -1.6388,-0.0881 -2.73352,-1.62008 -3.2805,-1.07967 -7.1116,8.64199 -4.91903,25.90731 -8.20123,35.08964 -3.28231,8.10194 -9.838255,17.27136 -15.855728,23.75296 -2.188099,2.70064 -3.825699,5.93733 -6.560963,7.55778 -1.641141,1.08031 -4.920411,-0.54076 -5.46745,1.61952 -1.491501,2.22649 -1.827032,6.98546 8.383421,14.03578 2.720745,1.87872 7.76313,5.89421 12.028454,6.29818 2.369635,0.22488 5.467466,-0.7198 5.467466,-0.7198 0,0 1.75811,1.79428 -3.098224,2.33929 -4.730281,0.53097 -5.901776,-2.27337 -7.654412,-0.17974 -1.933724,2.31237 -4.153893,2.42704 -7.107763,3.23901 -2.029935,0.55799 -2.843806,-2.93375 -5.467504,-2.15935 -2.692268,0.79467 1.093543,3.2391 1.093543,3.2391 0,0 -6.197825,-2.18432 -7.654537,0.71974 -0.779686,1.55438 2.001731,3.2419 4.738484,4.4987 2.736795,1.25683 5.036771,2.08115 5.649783,5.21848 0.09299,0.47638 -5.599458,1.281 -7.107723,-0.89974 -1.680591,-2.42992 -7.106893,-9.9869 -8.747954,-10.25703 -5.480309,1.12072 -8.922738,-0.47465 -12.392981,-0.53958 -2.931281,-0.0575 -5.444467,0.77146 -6.743198,3.59892 -0.891735,1.94123 2.429961,5.4557 4.373956,6.2982 2.043318,0.88548 7.568114,2.00372 8.201181,3.05908 1.638648,2.73159 5.284378,2.60939 6.925526,2.33931 1.094028,0 0.363696,-2.33867 1.457985,-3.41901 2.188227,-1.62043 4.372726,2.15908 6.560955,2.69919 1.770611,0.83292 2.29225,-1.12575 6.378711,2.15936 1.094153,1.08033 3.793888,0.65185 5.285253,1.61954 0.414153,2.0321 1.45711,2.69977 3.098262,2.15936 3.829334,0 -6.568148,-12.41836 6.560952,-8.63745 1.09407,0 -1.094381,2.69889 -0.546595,3.23907 6.5645,5.40127 8.1986,-7.55986 13.12191,-3.7789 1.64115,1.62039 -4.37483,4.85799 -2.73373,5.93827 12.58198,6.48152 1.63492,-1.61842 11.48178,-3.77891 1.64102,-0.54017 4.3718,15.11533 8.20118,15.65532 8.75265,1.6204 20.22589,1.07472 27.33741,10.25703 0.54715,1.08029 -2.18675,2.15873 -2.73374,3.23903 -1.09412,3.24073 -3.82695,5.93655 -4.374,9.17728 0,1.0803 2.73398,0.53903 2.18701,1.61954 -0.54721,1.62038 -3.28025,2.1582 -3.82734,4.31874 -3.82927,13.50326 5.64511,9.71687 14.39781,10.25698 h 0.54659 c -1.09412,-1.62036 -1.64029,-3.23872 -1.64029,-3.77882 0.54722,-2.16052 4.3737,-2.15817 4.92074,-4.31876 1.64116,-11.34551 -10.67795,-5.02498 -7.10768,-13.67605 1.64105,-0.54018 0.54659,1.79946 1.64019,1.79946 l 10.38826,-9.1773 c 0.54721,-2.7006 -6.56219,0.54249 -4.37399,-3.77884 1.64109,-3.78097 5.46657,-6.47597 7.10771,-10.25694 4.92336,-11.883 -7.10591,-20.51073 -10.38821,-26.45222 -0.54722,-1.08017 0.54655,-2.69862 1.09353,-3.77887 0,-1.08033 -1.0942,-2.69896 0,-3.23905 2.73517,-1.62045 6.01244,6e-4 9.29468,-1.07969 1.09412,-0.54014 -1.09407,-3.77912 0,-3.23902 3.28221,1.08037 5.4654,4.85849 9.29469,4.85849 3.82942,0.54019 18.58857,-4.31658 20.22976,-8.0975 1.64102,-3.78097 -10.39094,-4.31699 -5.46749,-7.5578 8.75265,-5.94143 19.1374,-8.09032 16.94916,-21.59361 -0.5472,-7.5618 -20.77916,-4.31436 -15.85572,-12.41631 0.54721,-1.62043 3.28047,6.1e-4 3.28047,-1.07969 0.5472,-1.62039 -2.18722,-3.23821 -1.64019,-4.85859 0,-1.08025 1.63962,-1.07969 2.73377,-1.07969 3.82921,0 7.10554,1.61958 10.93488,1.61958 4.37631,0 0.54606,-8.63518 2.18704,-12.95624 1.0941,-3.78097 10.38871,-21.04877 9.29473,-30.23104 -10.94098,5.40131 -12.02337,-14.57449 -21.32323,-16.73506 -1.02568,-0.20296 -2.57956,-0.29066 -4.55621,-0.17973 z m -67.43227,8.09763 c -1.65265,-0.32635 -8.94428,4.64593 -9.84141,5.57839 -0.33034,0.5126 0.0396,0.33411 0.18207,1.07966 0.14218,0.74592 1.05375,-0.71976 2.18704,-0.71976 1.13326,0 2.67305,-1.54024 3.09822,-2.51927 0.42554,-0.97895 0.99991,-1.1131 2.36928,-1.43957 1.36933,-0.32637 1.97164,-1.08631 2.91593,-0.89971 0.94442,0.18662 0.74149,-0.75319 -0.91121,-1.07974 z m -10.02373,8.09767 c -0.84994,-0.0928 -2.91759,3.18827 -5.46746,7.19782 -0.75547,1.2122 -1.54573,1.51486 -1.64023,4.49873 -0.0943,2.98388 1.47954,1.55242 3.46271,0.89975 1.98325,-0.6528 1.49948,-1.32019 2.91605,-2.15938 1.41658,-0.83915 2.27473,-2.30007 2.36921,-3.419 0.0943,-1.11895 0.64792,-3.01987 0.36456,-4.1388 -0.28342,-1.119 -1.15481,-2.78586 -2.0048,-2.87912 z m 22.14335,8.90735 c 0,0 -0.2062,1.69478 -0.27331,2.24932 -0.17507,1.43695 1.03211,4.50475 0.9112,5.57829 -0.42732,3.79597 -2.00432,2.51722 -2.55144,6.29817 0,2.43061 2.02383,1.94641 6.56095,2.87912 2.04977,0.42138 6.00887,-1.77411 7.65451,0 1.50646,1.62408 0.10522,1.70583 -2.55149,2.69926 -2.47831,0.92658 -3.46335,6.65596 -2.36928,10.43694 0.54721,1.89049 1.3594,3.3932 2.73372,3.41894 2.87393,0.0517 8.37567,0.4695 7.83673,1.0797 -1.51106,1.71138 0.20885,2.24971 0.54661,3.0591 0.34438,0.82527 0.78503,3.62347 -1.2757,6.83803 -0.54255,0.84586 -1.33019,1.58302 -2.91606,2.87904 -3.17771,2.22032 -5.67671,3.30424 -6.92549,4.31874 -2.18072,1.77169 -3.03675,2.97913 -3.46269,4.31875 -0.67966,2.13749 -2.14861,2.31596 -5.10302,2.69916 -1.57284,0.20382 -2.64568,0.0702 -3.28049,-0.89969 -1.12008,-1.71162 -3.06978,-1.81929 -3.645,-2.51931 -0.99731,-1.21362 -4.0997,-1.16254 -4.73842,-1.25955 -0.89091,-0.13545 -0.53849,-0.78696 -1.09355,-1.43963 l -7.10769,-3.05911 c -1.81374,-0.76519 7.47218,-4.85365 6.74325,-8.09753 -0.58269,-2.59097 -6.01568,-7.37574 -3.28051,-11.1567 3.43129,-2.15425 2.94126,1.92128 4.92073,1.43954 1.97949,-0.48215 7.26603,-4.71164 6.7432,-7.01792 -0.46684,-0.44766 -1.03006,-1.79067 -3.09821,-1.61954 -2.72148,0.22532 -2.93764,-1.42921 -3.64499,-2.33931 -1.41467,-1.82021 0.26807,-4.2445 0.18207,-5.3984 -0.0895,-1.20711 -0.82014,-3.68891 -0.82014,-3.68891 z m 7.38106,34.27985 c -1.88877,0.0461 -4.21243,2.77923 -4.92074,3.0591 -0.70825,0.27993 -1.39082,-0.0344 -2.00466,0.89974 -0.61361,0.93242 -0.59377,1.15308 -0.54665,1.61953 0.0465,0.46662 -2.3692,1.61952 -2.3692,1.61952 0,0 -11.69783,6.63808 -12.0285,7.1978 -0.32991,0.55916 0.54666,3.05911 0.54666,3.05911 0.28339,0.60637 0.52039,0.31948 1.27572,0.17973 0.75548,-0.1402 1.60711,0.0344 2.55155,0.3599 0.94436,0.32635 2.55893,1.2736 3.64493,2.15938 1.08604,0.88588 2.62585,2.71963 3.09831,3.419 0.47265,0.69918 2.49176,0.14613 4.19166,-0.17973 1.69993,-0.32635 1.70823,-0.43447 2.36929,-2.15939 0.66132,-1.72509 0.46627,-2.49307 0.18205,-3.23905 -0.28339,-0.74581 1.16151,-1.35952 1.82248,-1.07969 0.66111,0.27992 1.57964,-0.0666 2.0048,-0.71978 0.42512,-0.65276 4.31337,-2.6926 4.73849,-2.87912 0.31807,-0.1402 0.77783,0.0805 2.36924,-0.89966 3.27579,-3.11252 4.08322,-6.59259 3.28049,-8.45755 -0.80272,-1.86487 -1.87055,-1.97941 -3.09826,-1.97941 -1.22774,0 -4.31332,-1.10647 -4.73847,-1.61954 -0.42512,-0.51314 -0.48084,-0.40633 -2.3693,-0.35989 z m -75.0867,47.86589 c -0.531504,0.12258 -1.283202,0.3702 -2.369287,0.71978 -2.172039,0.6991 -3.084786,0.74653 -3.462697,1.25964 -0.377734,0.51318 0.162328,1.69293 0.72897,2.15937 0.566381,0.46661 0.769596,0.0662 0.911257,-0.5396 0.142148,-0.60598 1.128378,-0.61988 2.733727,-0.89973 1.605525,-0.27992 1.931053,0.86049 2.733727,1.97943 0.802237,1.11886 -0.425115,1.63334 0,2.51923 0.425116,0.8858 0.432135,1.50008 1.093588,2.33928 0.661054,0.83928 2.160454,0.53325 2.915922,0.71983 0.755521,0.18661 1.73469,0.92649 1.640272,1.43954 -0.04649,0.25669 -0.509917,0.33066 -0.91125,0.35989 0.737781,-0.058 1.54954,0.12649 2.18699,0.35989 1.274913,0.46663 1.36437,1.10012 2.733773,1.7995 1.369319,0.69931 4.212379,-0.34658 4.920638,-0.71985 0.708622,-0.3728 0.182075,-1.61953 0.182075,-1.61953 l 1.640178,0.17974 v -0.89974 c 0,0 -2.93663,0.29883 -3.644981,-0.53959 -0.708259,-0.83906 -1.25561,-0.38655 -1.82247,-0.89973 -0.566995,-0.51315 -3.280409,-3.77887 -3.280409,-3.77887 -0.377734,-0.3728 -0.391775,-0.4465 -0.911343,-0.53959 -0.519796,-0.0927 -1.803386,-1.44689 -3.64494,-2.51922 -1.841606,-1.07242 -2.619359,-2.04651 -3.280461,-2.69917 -0.330353,-0.32594 -0.562346,-0.30228 -1.093544,-0.17974 z m 6.014229,12.05641 c -0.401427,0.0302 -0.857301,0 -1.093594,0 -0.472628,0 -1.093408,0.71974 -1.093408,0.71974 -0.01315,-0.0752 -0.121951,-0.20336 -0.546595,-0.17973 -0.849969,0.0461 -0.223308,-0.79982 -1.640274,-1.07969 -1.416526,-0.27991 -0.93837,-0.96683 -1.457986,-1.61953 -0.519834,-0.65267 -1.161412,-2.1061 -1.822469,-2.33931 -0.661189,-0.23348 -2.173662,0.33925 -2.551529,-0.3599 -0.378173,-0.69968 -1.201949,-0.3139 -2.004757,-0.35991 -0.802674,-0.0461 -0.582701,-0.35343 -3.46274,-0.53962 -2.880389,-0.18662 -3.895185,1.0338 -4.556243,2.33931 -0.661012,1.30535 0.824261,2.69256 2.004802,2.87917 1.180454,0.18662 2.524986,-1.19337 3.280455,-1.7995 0.755425,-0.60603 0.864578,0.47348 0.911258,1.07968 0.0465,0.60581 0.830839,-0.11226 1.822468,0.53961 0.991587,0.65268 0.904545,2.31319 1.093501,3.05908 0.189086,0.74611 1.674096,0.086 2.004714,0.17975 0.330351,0.093 -0.308858,1.39346 2.004755,1.43958 2.313744,0.0461 4.111471,-1.00691 5.102973,-1.79949 0.992062,-0.79255 -0.202691,-1.05983 0.364573,-1.61954 0.283409,-0.2799 0.902439,-0.48157 1.640272,-0.53958 z m -33.16939,16.5551 c -1.436007,0.067 -2.915093,0.35989 -4.556199,0.89975 l 1.093457,2.15937 c -1.09407,14.04335 10.383838,4.85652 18.589405,8.63744 1.094158,0.54018 -1.093982,2.69871 0,3.77887 6.564595,4.32097 12.026173,-3.23697 16.402455,-7.01794 3.495992,-1.67666 2.462417,-4.32776 -1.82247,-3.419 -2.407106,0.5103 -3.826966,-1.70931 -4.374003,-1.97937 -2.494932,-1.23174 -4.736947,3.59891 -7.472253,3.59891 -7.127513,-1.21222 -4.11463,-2.34699 -9.11244,-3.95881 -4.180743,-1.34835 -7.311993,-2.76664 -8.747952,-2.69922 z"
         inkscape:connector-curvature="0" />
    </g>
    <g
       id="g4401"
       transform="translate(-120)">
      <rect
         style="opacity:1;fill:#eb5846;fill-opacity:1;stroke:none;stroke-width:4;stroke-linecap:round;stroke-linejoin:round;stroke-miterlimit:4;stroke-dasharray:none;stroke-dashoffset:0;stroke-opacity:1"
         id="rect4344"
         width="180"
         height="50.000023"
         x="-210"
         y="632.41663"
         rx="25"
         ry="24.999989" />
      <text
         xml:space="preserve"
         style="font-style:normal;font-variant:normal;font-weight:normal;font-stretch:normal;font-size:24px;line-height:1.25;font-family:Arial;-inkscape-font-specification:Arial;letter-spacing:0px;word-spacing:0px;fill:#ffffff;fill-opacity:1;stroke:none"
         x="-162.6875"
         y="665.86584"
         id="text4348"><tspan
           sodipodi:role="line"
           id="tspan4346"
           x="-162.6875"
           y="665.86584">Eindhoven</tspan></text>
      <ellipse
         style="opacity:1;fill:#ffffff;fill-opacity:1;stroke:none;stroke-width:10.00000286;stroke-linecap:round;stroke-linejoin:round;stroke-miterlimit:4;stroke-dasharray:none;stroke-dashoffset:0;stroke-opacity:1"
         id="ellipse4350"
         cx="-182.5"
         cy="657.41663"
         rx="12.499997"
         ry="12.500009" />
    </g>
    <g
       id="g4411"
       transform="translate(424,-45.999976)">
      <rect
         ry="24.999989"
         rx="25"
         y="632.41663"
         x="-210"
         height="50.000023"
         width="180"
         id="rect4403"
         style="opacity:1;fill:#eb5846;fill-opacity:1;stroke:none;stroke-width:4;stroke-linecap:round;stroke-linejoin:round;stroke-miterlimit:4;stroke-dasharray:none;stroke-dashoffset:0;stroke-opacity:1" />
      <text
         id="text4407"
         y="665.86584"
         x="-162.6875"
         style="font-style:normal;font-variant:normal;font-weight:normal;font-stretch:normal;font-size:24px;line-height:1.25;font-family:Arial;-inkscape-font-specification:Arial;letter-spacing:0px;word-spacing:0px;fill:#ffffff;fill-opacity:1;stroke:none"
         xml:space="preserve"><tspan
           y="665.86584"
           x="-162.6875"
           id="tspan4405"
           sodipodi:role="line">Eindhoven</tspan></text>
      <ellipse
         ry="12.500009"
         rx="12.499997"
         cy="657.41663"
         cx="-182.5"
         id="ellipse4409"
         style="opacity:1;fill:#ffffff;fill-opacity:1;stroke:none;stroke-width:10.00000286;stroke-linecap:round;stroke-linejoin:round;stroke-miterlimit:4;stroke-dasharray:none;stroke-dashoffset:0;stroke-opacity:1" />
    </g>
    <g
       id="g4421"
       transform="translate(-120,-60)">
      <rect
         ry="24.999989"
         rx="25"
         y="632.41663"
         x="-220"
         height="49.999977"
         width="190"
         id="rect4413"
         style="opacity:1;fill:#eb5846;fill-opacity:1;stroke:none;stroke-width:4;stroke-linecap:round;stroke-linejoin:round;stroke-miterlimit:4;stroke-dasharray:none;stroke-dashoffset:0;stroke-opacity:1" />
      <text
         id="text4417"
         y="665.86584"
         x="-198.6875"
         style="font-style:normal;font-variant:normal;font-weight:normal;font-stretch:normal;font-size:24px;line-height:1.25;font-family:Arial;-inkscape-font-specification:Arial;letter-spacing:0px;word-spacing:0px;fill:#ffffff;fill-opacity:1;stroke:none"
         xml:space="preserve"><tspan
           y="665.86584"
           x="-198.6875"
           id="tspan4415"
           sodipodi:role="line">Rotterdam</tspan></text>
      <ellipse
         ry="12.500009"
         rx="12.499997"
         cy="657.41663"
         cx="-57.499996"
         id="ellipse4419"
         style="opacity:1;fill:#ffffff;fill-opacity:1;stroke:none;stroke-width:10.00000286;stroke-linecap:round;stroke-linejoin:round;stroke-miterlimit:4;stroke-dasharray:none;stroke-dashoffset:0;stroke-opacity:1" />
    </g>
    <g
       transform="translate(250,-76)"
       id="g4431">
      <rect
         style="opacity:1;fill:#eb5846;fill-opacity:1;stroke:none;stroke-width:4;stroke-linecap:round;stroke-linejoin:round;stroke-miterlimit:4;stroke-dasharray:none;stroke-dashoffset:0;stroke-opacity:1"
         id="rect4423"
         width="190"
         height="49.999977"
         x="-220"
         y="632.41663"
         rx="25"
         ry="24.999989" />
      <text
         xml:space="preserve"
         style="font-style:normal;font-variant:normal;font-weight:normal;font-stretch:normal;font-size:24px;line-height:1.25;font-family:Arial;-inkscape-font-specification:Arial;letter-spacing:0px;word-spacing:0px;fill:#ffffff;fill-opacity:1;stroke:none"
         x="-198.6875"
         y="665.86584"
         id="text4427"><tspan
           sodipodi:role="line"
           id="tspan4425"
           x="-198.6875"
           y="665.86584">Rotterdam</tspan></text>
      <ellipse
         style="opacity:1;fill:#ffffff;fill-opacity:1;stroke:none;stroke-width:10.00000286;stroke-linecap:round;stroke-linejoin:round;stroke-miterlimit:4;stroke-dasharray:none;stroke-dashoffset:0;stroke-opacity:1"
         id="ellipse4429"
         cx="-57.499996"
         cy="657.41663"
         rx="12.499997"
         ry="12.500009" />
    </g>
    <g
       id="g4441"
       transform="translate(404,-122)">
      <rect
         ry="24.999989"
         rx="25"
         y="632.41663"
         x="-210"
         height="50.000023"
         width="180"
         id="rect4433"
         style="opacity:1;fill:#eb5846;fill-opacity:1;stroke:none;stroke-width:4;stroke-linecap:round;stroke-linejoin:round;stroke-miterlimit:4;stroke-dasharray:none;stroke-dashoffset:0;stroke-opacity:1" />
      <text
         id="text4437"
         y="665.86584"
         x="-162.6875"
         style="font-style:normal;font-variant:normal;font-weight:normal;font-stretch:normal;font-size:24px;line-height:1.25;font-family:Arial;-inkscape-font-specification:Arial;letter-spacing:0px;word-spacing:0px;fill:#ffffff;fill-opacity:1;stroke:none"
         xml:space="preserve"><tspan
           y="665.86584"
           x="-162.6875"
           id="tspan4435"
           sodipodi:role="line">Amsterdam</tspan></text>
      <ellipse
         ry="12.500009"
         rx="12.499997"
         cy="657.41663"
         cx="-182.5"
         id="ellipse4439"
         style="opacity:1;fill:#ffffff;fill-opacity:1;stroke:none;stroke-width:10.00000286;stroke-linecap:round;stroke-linejoin:round;stroke-miterlimit:4;stroke-dasharray:none;stroke-dashoffset:0;stroke-opacity:1" />
    </g>
    <g
       transform="translate(838,42.000024)"
       id="g4451">
      <rect
         style="opacity:1;fill:#eb5846;fill-opacity:1;stroke:none;stroke-width:4;stroke-linecap:round;stroke-linejoin:round;stroke-miterlimit:4;stroke-dasharray:none;stroke-dashoffset:0;stroke-opacity:1"
         id="rect4443"
         width="132"
         height="50"
         x="-210"
         y="632.41663"
         rx="25"
         ry="20.08143" />
      <text
         xml:space="preserve"
         style="font-style:normal;font-variant:normal;font-weight:normal;font-stretch:normal;font-size:24px;line-height:1.25;font-family:Arial;-inkscape-font-specification:Arial;letter-spacing:0px;word-spacing:0px;fill:#ffffff;fill-opacity:1;stroke:none"
         x="-162.6875"
         y="665.86584"
         id="text4447"><tspan
           sodipodi:role="line"
           id="tspan4445"
           x="-162.6875"
           y="665.86584">Praha</tspan></text>
      <ellipse
         style="opacity:1;fill:#ffffff;fill-opacity:1;stroke:none;stroke-width:10.00000286;stroke-linecap:round;stroke-linejoin:round;stroke-miterlimit:4;stroke-dasharray:none;stroke-dashoffset:0;stroke-opacity:1"
         id="ellipse4449"
         cx="-182.5"
         cy="657.41663"
         rx="12.499997"
         ry="12.500009" />
    </g>
    <g
       id="g4461"
       transform="translate(812,96)">
      <rect
         ry="24.999989"
         rx="25"
         y="632.41663"
         x="-162"
         height="50"
         width="131.99998"
         id="rect4453"
         style="opacity:1;fill:#eb5846;fill-opacity:1;stroke:none;stroke-width:4;stroke-linecap:round;stroke-linejoin:round;stroke-miterlimit:4;stroke-dasharray:none;stroke-dashoffset:0;stroke-opacity:1" />
      <text
         id="text4457"
         y="665.86584"
         x="-138.6875"
         style="font-style:normal;font-variant:normal;font-weight:normal;font-stretch:normal;font-size:24px;line-height:1.25;font-family:Arial;-inkscape-font-specification:Arial;letter-spacing:0px;word-spacing:0px;fill:#ffffff;fill-opacity:1;stroke:none"
         xml:space="preserve"><tspan
           y="665.86584"
           x="-138.6875"
           id="tspan4455"
           sodipodi:role="line">Brno</tspan></text>
      <ellipse
         ry="12.500009"
         rx="12.499997"
         cy="657.41663"
         cx="-57.499996"
         id="ellipse4459"
         style="opacity:1;fill:#ffffff;fill-opacity:1;stroke:none;stroke-width:10.00000286;stroke-linecap:round;stroke-linejoin:round;stroke-miterlimit:4;stroke-dasharray:none;stroke-dashoffset:0;stroke-opacity:1" />
    </g>
    <g
       id="g4485"
       transform="translate(978,162.00002)">
      <rect
         ry="20.08143"
         rx="25"
         y="632.41663"
         x="-210"
         height="50"
         width="168"
         id="rect4477"
         style="opacity:1;fill:#eb5846;fill-opacity:1;stroke:none;stroke-width:4;stroke-linecap:round;stroke-linejoin:round;stroke-miterlimit:4;stroke-dasharray:none;stroke-dashoffset:0;stroke-opacity:1" />
      <text
         id="text4481"
         y="665.86584"
         x="-162.6875"
         style="font-style:normal;font-variant:normal;font-weight:normal;font-stretch:normal;font-size:24px;line-height:1.25;font-family:Arial;-inkscape-font-specification:Arial;letter-spacing:0px;word-spacing:0px;fill:#ffffff;fill-opacity:1;stroke:none"
         xml:space="preserve"><tspan
           y="665.86584"
           x="-162.6875"
           id="tspan4479"
           sodipodi:role="line">Bratislava</tspan></text>
      <ellipse
         ry="12.500009"
         rx="12.499997"
         cy="657.41663"
         cx="-182.5"
         id="ellipse4483"
         style="opacity:1;fill:#ffffff;fill-opacity:1;stroke:none;stroke-width:10.00000286;stroke-linecap:round;stroke-linejoin:round;stroke-miterlimit:4;stroke-dasharray:none;stroke-dashoffset:0;stroke-opacity:1" />
    </g>
    <g
       transform="translate(796,174)"
       id="g4495">
      <rect
         style="opacity:1;fill:#eb5846;fill-opacity:1;stroke:none;stroke-width:4;stroke-linecap:round;stroke-linejoin:round;stroke-miterlimit:4;stroke-dasharray:none;stroke-dashoffset:0;stroke-opacity:1"
         id="rect4487"
         width="131.99998"
         height="50"
         x="-162"
         y="632.41663"
         rx="25"
         ry="24.999989" />
      <text
         xml:space="preserve"
         style="font-style:normal;font-variant:normal;font-weight:normal;font-stretch:normal;font-size:24px;line-height:1.25;font-family:Arial;-inkscape-font-specification:Arial;letter-spacing:0px;word-spacing:0px;fill:#ffffff;fill-opacity:1;stroke:none"
         x="-138.6875"
         y="665.86584"
         id="text4491"><tspan
           sodipodi:role="line"
           id="tspan4489"
           x="-138.6875"
           y="665.86584">Wien</tspan></text>
      <ellipse
         style="opacity:1;fill:#ffffff;fill-opacity:1;stroke:none;stroke-width:10.00000286;stroke-linecap:round;stroke-linejoin:round;stroke-miterlimit:4;stroke-dasharray:none;stroke-dashoffset:0;stroke-opacity:1"
         id="ellipse4493"
         cx="-57.499996"
         cy="657.41663"
         rx="12.499997"
         ry="12.500009" />
    </g>
    <g
       transform="translate(1078,202.00002)"
       id="g4505">
      <rect
         style="opacity:1;fill:#eb5846;fill-opacity:1;stroke:none;stroke-width:4;stroke-linecap:round;stroke-linejoin:round;stroke-miterlimit:4;stroke-dasharray:none;stroke-dashoffset:0;stroke-opacity:1"
         id="rect4497"
         width="168"
         height="50"
         x="-210"
         y="632.41663"
         rx="25"
         ry="20.08143" />
      <text
         xml:space="preserve"
         style="font-style:normal;font-variant:normal;font-weight:normal;font-stretch:normal;font-size:24px;line-height:1.25;font-family:Arial;-inkscape-font-specification:Arial;letter-spacing:0px;word-spacing:0px;fill:#ffffff;fill-opacity:1;stroke:none"
         x="-162.6875"
         y="665.86584"
         id="text4501"><tspan
           sodipodi:role="line"
           id="tspan4499"
           x="-162.6875"
           y="665.86584">Budapest</tspan></text>
      <ellipse
         style="opacity:1;fill:#ffffff;fill-opacity:1;stroke:none;stroke-width:10.00000286;stroke-linecap:round;stroke-linejoin:round;stroke-miterlimit:4;stroke-dasharray:none;stroke-dashoffset:0;stroke-opacity:1"
         id="ellipse4503"
         cx="-182.5"
         cy="657.41663"
         rx="12.499997"
         ry="12.500009" />
    </g>
  </g>
</svg>
